<?xml version="1.0" encoding="utf-8"?>
<!-- Generator: Adobe Illustrator 25.1.0, SVG Export Plug-In . SVG Version: 6.00 Build 0)  -->
<svg version="1.1" id="Layer_1" xmlns="http://www.w3.org/2000/svg" xmlns:xlink="http://www.w3.org/1999/xlink" x="0px" y="0px"
	 viewBox="0 0 44.8 45" style="enable-background:new 0 0 44.8 45;" xml:space="preserve">
<g>
	<path d="M22.4,13c4.4,0,8.3,3.1,9.3,7.4h13.1C43.6,8,32.6-1.1,20.3,0.1C9.5,1.1,1,9.6,0,20.4h13.1C14.1,16.1,18,13,22.4,13z"/>
	<path d="M17.2,22.5c0,2.9,2.3,5.2,5.2,5.2s5.2-2.3,5.2-5.2c0-2.9-2.3-5.2-5.2-5.2S17.2,19.6,17.2,22.5
		C17.2,22.5,17.2,22.5,17.2,22.5z"/>
	<path d="M22.4,32c-4.4,0-8.3-3.1-9.3-7.4H0C1.2,37,12.1,46.1,24.5,44.9c10.7-1,19.3-9.5,20.3-20.3H31.7C30.7,29,26.8,32,22.4,32z"
		/>
</g>
</svg>
